<?xml version="1.0" encoding="UTF-8" standalone="no"?>
<!-- Created with Inkscape (http://www.inkscape.org/) -->

<svg
   width="50.107422mm"
   height="15.69922mm"
   viewBox="0 0 50.107422 15.69922"
   version="1.1"
   id="svg1"
   inkscape:version="1.3 (0e150ed6c4, 2023-07-21)"
   sodipodi:docname="BACK.svg"
   inkscape:export-filename="BACK.png"
   inkscape:export-xdpi="96"
   inkscape:export-ydpi="96"
   xmlns:inkscape="http://www.inkscape.org/namespaces/inkscape"
   xmlns:sodipodi="http://sodipodi.sourceforge.net/DTD/sodipodi-0.dtd"
   xmlns="http://www.w3.org/2000/svg"
   xmlns:svg="http://www.w3.org/2000/svg">
  <sodipodi:namedview
     id="namedview1"
     pagecolor="#ffffff"
     bordercolor="#000000"
     borderopacity="0.25"
     inkscape:showpageshadow="2"
     inkscape:pageopacity="0.0"
     inkscape:pagecheckerboard="0"
     inkscape:deskcolor="#d1d1d1"
     inkscape:document-units="mm"
     inkscape:zoom="0.65834035"
     inkscape:cx="353.16079"
     inkscape:cy="108.60644"
     inkscape:window-width="1920"
     inkscape:window-height="974"
     inkscape:window-x="-11"
     inkscape:window-y="-11"
     inkscape:window-maximized="1"
     inkscape:current-layer="layer1" />
  <defs
     id="defs1" />
  <g
     inkscape:label="Layer 1"
     inkscape:groupmode="layer"
     id="layer1"
     transform="translate(-11.52646,-119.66976)">
    <g
       id="text2"
       inkscape:label="back TEXT"
       transform="translate(-167.4501,9.9178059)">
      <path
         style="color:#000000;-inkscape-font-specification:'Gotham Narrow';fill:#2b318d;-inkscape-stroke:none;paint-order:markers stroke fill"
         d="m 197.19727,109.83984 -5.33008,8.96875 c -0.11855,-0.36448 -0.13343,-0.77572 -0.33789,-1.08789 0.92223,-0.82445 1.63672,-1.88503 1.63672,-3.3125 0,-1.17008 -0.47508,-2.40438 -1.45704,-3.24023 -0.98195,-0.83585 -2.34668,-1.24024 -3.97656,-1.24024 h -5.00586 l -3.75,15.34766 h 1.91211 4.76172 c 0.91973,0 1.7817,-0.12213 2.58203,-0.35156 l -0.20898,0.35156 h 2.63672 3.74023 l 1.53516,-2.76953 h 1.69531 l 0.21094,2.76953 h 5.79297 l -0.19727,-1.85742 c 0.058,0.0637 0.0777,0.15765 0.13867,0.21875 1.1914,1.19438 2.88304,1.81445 4.72266,1.81445 1.07079,0 2.02625,-0.31694 2.90625,-0.76172 l -0.14258,0.58594 h 1.91016 3.86523 l 0.84961,-3.55469 1.01562,3.55469 h 6.11524 l -2.70899,-8.22851 6.97461,-7.11915 h -7.68359 l -1.13477,1.28125 0.30469,-1.28125 h -5.75781 l -0.48047,1.9629 c -1.1603,-1.21676 -2.71908,-2.13868 -4.67578,-2.13868 -2.09242,0 -3.87164,0.89031 -5.23242,2.23047 l -0.008,0.006 -0.006,0.008 c -0.83657,0.8469 -1.43193,1.88522 -1.8711,2.97852 l -0.54687,-5.13477 z m 12.2832,5.38086 c 0.41546,0 0.46902,0.0439 1.01758,0.78516 l 0.95312,1.28906 1.96875,-1.66797 -1.18555,4.85547 -1.60156,-2.01562 -1.17578,0.94726 c -0.55951,0.45034 -0.9494,0.56836 -1.17578,0.56836 -0.298,0 -0.37599,-0.0575 -0.50195,-0.21094 -0.12597,-0.15341 -0.27344,-0.48378 -0.27344,-1.02343 0,-1.23148 0.5851,-2.5558 1.07812,-3.04883 0.38768,-0.38768 0.60314,-0.47852 0.89649,-0.47852 z m 6.81055,1.28711 1.32812,0.69141 -1.98633,2.00195 z m -29.70704,3.29883 c 0,0.13221 0.028,0.0159 0.0234,0.0195 -1e-4,8e-5 -0.0115,0.002 -0.0117,0.002 -4.9e-4,-8.1e-4 -0.0117,-0.0228 -0.0117,-0.0215 z"
         id="path8"
         sodipodi:nodetypes="cccssscccsccccccccccsccccccccccccccsccccccsccccccsssssccccsscs" />
      <path
         style="color:#000000;-inkscape-font-specification:'Gotham Narrow';fill:#ffffff;-inkscape-stroke:none;paint-order:markers stroke fill"
         d="m 180.88777,123.77482 h 4.7625 c 3.05153,0 5.08001,-1.37584 5.08001,-3.79237 0,-1.21708 -0.61736,-1.99319 -1.5875,-2.46944 1.42875,-0.35278 2.52236,-1.3582 2.52236,-3.10445 0,-1.62278 -1.16417,-2.98097 -3.93348,-2.98097 h -3.82764 z m 3.21028,-2.34598 0.61736,-2.7693 h 1.92264 c 1.02306,0 1.44639,0.47625 1.44639,1.14653 0,1.02305 -0.77611,1.62277 -2.02847,1.62277 z m 1.19945,-4.9918 0.58208,-2.66348 h 1.62278 c 1.05833,0 1.49931,0.47625 1.49931,1.09361 0,1.05834 -0.75848,1.56987 -2.04612,1.56987 z m 5.36223,7.33778 h 2.8575 l 1.53459,-2.76931 h 3.96875 l 0.21167,2.76931 h 2.73403 l -1.32292,-12.43543 h -2.59292 z m 5.8914,-5.13292 2.01083,-4.03931 0.19403,4.03931 z m 11.74752,5.30931 c 1.41111,0 2.6282,-0.58209 3.59834,-1.48167 l -1.49931,-1.88736 c -0.72319,0.58208 -1.42875,0.89958 -2.11667,0.89958 -1.39347,0 -2.27541,-1.11125 -2.27541,-2.73403 0,-1.62278 0.635,-3.22792 1.51694,-4.10986 0.56445,-0.56445 1.19945,-0.91723 1.95792,-0.91723 0.9525,0 1.56986,0.51153 2.2225,1.39348 l 2.08139,-1.76389 c -0.91722,-1.25236 -2.29306,-2.09903 -4.1275,-2.09903 -1.71098,0 -3.01625,0.65264 -4.18042,1.79917 -1.42875,1.44639 -2.2225,3.7218 -2.2225,5.78556 0,3.15736 2.01083,5.11528 5.04472,5.11528 z m 4.67432,-0.17639 h 2.68111 l 0.77611,-3.24556 1.92264,-1.94028 1.48167,5.18584 h 2.91042 l -2.34597,-7.12612 5.11528,-5.22111 h -3.43959 l -4.65667,5.25639 1.25236,-5.25639 h -2.68111 z"
         id="path9" />
    </g>
  </g>
</svg>
