<?xml version="1.0" encoding="UTF-8" standalone="no"?>
<!-- Created with Inkscape (http://www.inkscape.org/) -->

<svg
   width="900"
   height="500"
   viewBox="0 0 238.12499 132.29167"
   version="1.1"
   id="svg1"
   inkscape:version="1.3 (0e150ed6c4, 2023-07-21)"
   sodipodi:docname="BG.svg"
   xml:space="preserve"
   inkscape:export-filename="BG.png"
   inkscape:export-xdpi="96"
   inkscape:export-ydpi="96"
   xmlns:inkscape="http://www.inkscape.org/namespaces/inkscape"
   xmlns:sodipodi="http://sodipodi.sourceforge.net/DTD/sodipodi-0.dtd"
   xmlns:xlink="http://www.w3.org/1999/xlink"
   xmlns="http://www.w3.org/2000/svg"
   xmlns:svg="http://www.w3.org/2000/svg"><sodipodi:namedview
     id="namedview1"
     pagecolor="#ffffff"
     bordercolor="#000000"
     borderopacity="0.25"
     inkscape:showpageshadow="2"
     inkscape:pageopacity="0.0"
     inkscape:pagecheckerboard="0"
     inkscape:deskcolor="#d1d1d1"
     inkscape:document-units="mm"
     inkscape:zoom="4"
     inkscape:cx="-11.25"
     inkscape:cy="188.375"
     inkscape:window-width="1649"
     inkscape:window-height="1008"
     inkscape:window-x="228"
     inkscape:window-y="0"
     inkscape:window-maximized="0"
     inkscape:current-layer="layer10"
     showgrid="false" /><defs
     id="defs1"><linearGradient
       id="linearGradient4"
       inkscape:collect="always"><stop
         style="stop-color:#bbecf4;stop-opacity:1;"
         offset="0"
         id="stop4" /><stop
         style="stop-color:#efe8fd;stop-opacity:1;"
         offset="1"
         id="stop5" /></linearGradient><linearGradient
       inkscape:collect="always"
       xlink:href="#linearGradient4"
       id="linearGradient5"
       x1="132.29167"
       y1="4.6999439e-16"
       x2="132.29167"
       y2="59.185169"
       gradientUnits="userSpaceOnUse" /></defs><g
     inkscape:label="BG"
     inkscape:groupmode="layer"
     id="layer1"><path
       style="fill:url(#linearGradient5);fill-opacity:1;stroke:none;stroke-width:0.600001;stroke-linecap:round;paint-order:markers stroke fill"
       d="M 0,0 V 132.29166 H 238.125 V 0 Z"
       id="path2" /></g><g
     inkscape:groupmode="layer"
     id="layer10"
     inkscape:label="Mountain"><path
       id="path36-5"
       style="fill:#44456e;fill-opacity:1;stroke:none;stroke-width:1.20571;stroke-linecap:round;stroke-dasharray:none;stroke-opacity:1;paint-order:markers stroke fill"
       d="m 238.125,55.696 c -5.57979,4.590402 -13.49581,10.484674 -25.97257,19.221049 -28.42927,19.906493 -32.49781,23.849909 -38.84364,30.868921 L 238.125,105.0656 Z" /><path
       style="fill:#55638a;fill-opacity:1;stroke:none;stroke-width:1.20571;stroke-linecap:round;stroke-dasharray:none;stroke-opacity:1;paint-order:markers stroke fill"
       d="M 224.37473,98.712849 C 214.90057,67.638783 195.53329,65.95404 184.93125,48.635107 168.88632,22.424953 154.81744,37.023952 143.42536,48.635106 131.69545,60.590604 134.08098,58.178501 104.6264,78.566495 77.693959,97.208793 66.223902,103.68877 45.543588,113.18817 l 181.119112,0.18709 z"
       id="path36"
       sodipodi:nodetypes="csssccc" /><path
       id="path3"
       style="display:inline;fill:#44456e;fill-opacity:1;stroke:none;stroke-width:1.20571;stroke-linecap:round;stroke-dasharray:none;stroke-opacity:1;paint-order:markers stroke fill"
       d="M 58.228392,6.7813866 C 41.962258,7.2682096 20.636651,31.69012 13.881326,41.232512 10.686261,45.745776 7.534586,49.501347 -0.03462,55.724651 -0.02367,55.715651 -0.01093,55.705741 0,55.696751 V 105.06582 L 120.41892,103.7274 C 112.31169,83.793348 81.926952,40.605664 73.823302,19.529961 70.183992,10.06497 64.593422,6.5908906 58.228392,6.7813866 Z M -4.084502,58.957529 c -0.369971,0.287984 -0.768317,0.592591 -1.156002,0.890901 0.384079,-0.296182 0.789139,-0.604766 1.156002,-0.890901 z m -5.835303,4.431254 c -0.841811,0.624635 -1.787365,1.312132 -2.699577,1.979207 0.900942,-0.660035 1.868575,-1.361331 2.699577,-1.979207 z m -7.053833,5.149556 c -2.73895,1.965333 -5.668173,4.047218 -8.998934,6.379456 3.323769,-2.327343 6.280436,-4.426425 8.998934,-6.379456 z m -43.052144,32.223881 c -1.734841,1.68166 -3.19222,3.25624 -4.790408,5.02397 8.1e-5,-9e-5 4.36e-4,9e-5 5.17e-4,0 1.598453,-1.76802 3.054584,-3.3419 4.789891,-5.02397 z" /></g><g
     inkscape:groupmode="layer"
     id="layer11"
     inkscape:label="Floor"
     style="display:inline"><path
       style="fill:#bdd0db;fill-opacity:1;stroke:none;stroke-width:0.600001;stroke-linecap:round;paint-order:markers stroke fill"
       d="m 0,132.29166 v -28.60289 h 238.125 v 28.60289 z"
       id="path1" /><path
       id="path21"
       style="display:inline;fill:#eaeef4;stroke-width:3.01613;stroke-linecap:round;paint-order:markers stroke fill"
       d="m 0,99.669885 v 8.417575 c 0.74624854,0.11683 1.7637969,0.29694 2.4758179,0.40101 1.8303743,0.26753 3.5609234,0.49126 5.2606608,0.66249 1.6997374,0.17123 3.3689753,0.29006 5.0756593,0.34778 1.706684,0.0577 3.450787,0.0544 5.302002,-0.0186 1.851215,-0.073 3.80946,-0.21576 5.94279,-0.43667 2.133329,-0.2209 4.441893,-0.51985 6.994921,-0.90588 2.553028,-0.38604 5.350671,-0.85894 8.460983,-1.42731 3.110313,-0.56836 6.083954,-0.99709 8.917802,-1.30844 2.833848,-0.31138 5.527729,-0.50524 8.077543,-0.60514 2.549813,-0.0999 4.955816,-0.10583 7.21403,-0.0398 2.258212,0.0661 4.368735,0.20417 6.327779,0.39068 1.959044,0.1865 3.766482,0.42172 5.41879,0.68316 1.652308,0.26144 3.149578,0.54889 4.487582,0.83974 2.676006,0.5817 4.715648,1.17673 6.089034,1.603 1.373381,0.42628 3.373165,0.89704 5.897831,1.31 2.524668,0.41296 5.574602,0.76838 9.048545,0.96377 1.73699,0.0977 3.57952,0.15519 5.51594,0.16019 1.93643,0.005 3.96653,-0.0428 6.07715,-0.15606 2.11061,-0.11322 4.30182,-0.29182 6.56136,-0.5488 2.25954,-0.25698 4.58741,-0.59229 6.97063,-1.01854 10.25587,-2.28546 18.94258,-4.57425 29.09641,-0.43874 2.49438,0.41147 5.1606,0.73456 8.1902,0.87902 1.51482,0.0722 3.12048,0.0998 4.84105,0.0713 1.72057,-0.0285 3.55561,-0.11324 5.5299,-0.2651 1.97426,-0.15185 4.08746,-0.37083 6.36343,-0.66869 2.27596,-0.29786 4.71503,-0.6745 7.34064,-1.14102 5.25119,-0.93303 9.1491,-1.666 12.35532,-2.18953 3.20621,-0.52352 5.7205,-0.83741 8.20466,-0.93276 1.24209,-0.0477 2.47672,-0.0406 3.78634,0.0222 1.30963,0.0629 2.69495,0.18134 4.23746,0.35709 3.08505,0.3515 6.80128,0.93119 11.81014,1.74821 4.0346,0.65811 7.16262,1.17755 10.25312,1.6614 v -8.417575 h -59.75656 -31.31747 z"
       sodipodi:nodetypes="ccssssssscscssssssscsccssssssscssccccc" /></g></svg>
