<?xml version="1.0" encoding="UTF-8" standalone="no"?>
<!-- Created with Inkscape (http://www.inkscape.org/) -->

<svg
   width="17.397373mm"
   height="20.031578mm"
   viewBox="0 0 17.397373 20.031578"
   version="1.1"
   id="svg1"
   inkscape:version="1.3 (0e150ed6c4, 2023-07-21)"
   sodipodi:docname="BoxYes.svg"
   inkscape:export-filename="BoxYes.png"
   inkscape:export-xdpi="96"
   inkscape:export-ydpi="96"
   xmlns:inkscape="http://www.inkscape.org/namespaces/inkscape"
   xmlns:sodipodi="http://sodipodi.sourceforge.net/DTD/sodipodi-0.dtd"
   xmlns="http://www.w3.org/2000/svg"
   xmlns:svg="http://www.w3.org/2000/svg">
  <sodipodi:namedview
     id="namedview1"
     pagecolor="#ffffff"
     bordercolor="#000000"
     borderopacity="0.25"
     inkscape:showpageshadow="2"
     inkscape:pageopacity="0.0"
     inkscape:pagecheckerboard="0"
     inkscape:deskcolor="#d1d1d1"
     inkscape:document-units="mm"
     inkscape:zoom="0.65834035"
     inkscape:cx="32.65788"
     inkscape:cy="38.733765"
     inkscape:window-width="1920"
     inkscape:window-height="974"
     inkscape:window-x="-11"
     inkscape:window-y="-11"
     inkscape:window-maximized="1"
     inkscape:current-layer="layer1" />
  <defs
     id="defs1" />
  <g
     inkscape:label="Layer 1"
     inkscape:groupmode="layer"
     id="layer1"
     transform="translate(-96.572917,-138.37708)">
    <path
       style="color:#000000;fill:#ffffff;stroke:#2b318d;stroke-width:2;stroke-linecap:round;stroke-linejoin:round;stroke-dasharray:none;stroke-opacity:1;paint-order:markers stroke fill"
       d="m 99.136839,140.14425 a 1.0001,1.0001 0 0 0 -1,1 v 12.30274 a 1.0001,1.0001 0 0 0 1,1 h 12.269531 a 1.0001,1.0001 0 0 0 1,-1 v -12.30274 a 1.0001,1.0001 0 0 0 -1,-1 z m 1.000001,2 h 10.26953 v 10.30274 h -10.26953 z"
       id="rect1" />
    <path
       style="fill:#ffffff;fill-opacity:1;stroke:#2b318d;stroke-width:2.16907;stroke-linecap:round;stroke-linejoin:round;stroke-dasharray:none;stroke-opacity:1;paint-order:markers stroke fill"
       d="m 101.51545,146.56357 c -2.112952,1.33023 -2.817225,2.62242 -3.858027,4.01729 2.140946,2.64273 4.332467,5.8041 6.189487,6.7433 3.22313,-7.09624 5.4345,-10.72539 9.0389,-14.45507 l -4.44771,-3.40752 c -2.37795,3.09026 -3.72994,7.83245 -5.12922,11.01168 -0.62434,-0.97285 -1.19282,-2.01653 -1.79343,-3.90968 z"
       id="path7"
       sodipodi:nodetypes="ccccccc" />
    <path
       style="color:#000000;fill:#ffffff;stroke:#2b318d;stroke-width:2;stroke-linecap:round;stroke-linejoin:round;stroke-dasharray:none;stroke-opacity:1;paint-order:markers stroke fill"
       d="m 99.136839,140.14425 a 1.0001,1.0001 0 0 0 -1,1 v 12.30274 a 1.0001,1.0001 0 0 0 1,1 h 12.269531 a 1.0001,1.0001 0 0 0 1,-1 v -12.30274 a 1.0001,1.0001 0 0 0 -1,-1 z m 1.000001,2 h 10.26953 v 10.30274 h -10.26953 z"
       id="path1" />
    <path
       style="fill:#ffffff;fill-opacity:1;stroke:#2b318d;stroke-width:2.16907;stroke-linecap:round;stroke-linejoin:round;stroke-dasharray:none;stroke-opacity:1;paint-order:markers stroke fill"
       d="m 101.51545,146.56357 c -2.112952,1.33023 -2.817225,2.62242 -3.858027,4.01729 2.140946,2.64273 4.332467,5.8041 6.189487,6.7433 3.22313,-7.09624 5.4345,-10.72539 9.0389,-14.45507 l -4.44771,-3.40752 c -2.37795,3.09026 -3.72994,7.83245 -5.12922,11.01168 -0.62434,-0.97285 -1.19282,-2.01653 -1.79343,-3.90968 z"
       id="path2"
       sodipodi:nodetypes="ccccccc" />
  </g>
</svg>
